<svg width="7" height="11" viewBox="0 0 7 11" fill="none" xmlns="http://www.w3.org/2000/svg">
<path d="M0.290792 10.2458C0.104541 10.0584 -4.28589e-07 9.80498 -4.17042e-07 9.5408C-4.05494e-07 9.27661 0.104541 9.02316 0.290792 8.8358L3.83079 5.2458L0.290792 1.7058C0.104541 1.51844 -5.52942e-08 1.26498 -4.37463e-08 1.0008C-3.21984e-08 0.736612 0.104542 0.483161 0.290792 0.295798C0.383755 0.20207 0.494356 0.127675 0.616216 0.0769067C0.738075 0.026138 0.868781 3.79756e-08 1.00079 4.3746e-08C1.1328 4.95165e-08 1.26351 0.0261381 1.38537 0.0769067C1.50723 0.127675 1.61783 0.20207 1.71079 0.295798L5.95079 4.5358C6.04452 4.62876 6.11891 4.73936 6.16968 4.86122C6.22045 4.98308 6.24659 5.11379 6.24659 5.2458C6.24659 5.37781 6.22045 5.50852 6.16968 5.63038C6.11891 5.75223 6.04452 5.86284 5.95079 5.9558L1.71079 10.2458C1.61783 10.3395 1.50723 10.4139 1.38537 10.4647C1.26351 10.5155 1.1328 10.5416 1.00079 10.5416C0.86878 10.5416 0.738074 10.5155 0.616215 10.4647C0.494356 10.4139 0.383755 10.3395 0.290792 10.2458Z" fill="#212329"/>
</svg>
